<mxfile host="app.diagrams.net" modified="2023-06-28T11:58:11.505Z" agent="Mozilla/5.0 (Windows NT 10.0; Win64; x64) AppleWebKit/537.36 (KHTML, like Gecko) Chrome/114.0.0.0 Safari/537.36" etag="xXvMUcUpbroJUz7JLRPS" version="21.5.0" type="device">
  <diagram name="Page-1" id="10a91c8b-09ff-31b1-d368-03940ed4cc9e">
    <mxGraphModel dx="864" dy="859" grid="1" gridSize="10" guides="1" tooltips="1" connect="1" arrows="1" fold="1" page="1" pageScale="1" pageWidth="1100" pageHeight="850" background="none" math="0" shadow="0">
      <root>
        <mxCell id="0" />
        <mxCell id="1" parent="0" />
        <mxCell id="ljsfis1CIRC_pwl8-5nV-2" value="szczyt" style="ellipse;whiteSpace=wrap;html=1;aspect=fixed;" vertex="1" parent="1">
          <mxGeometry x="500" y="30" width="80" height="80" as="geometry" />
        </mxCell>
        <mxCell id="ljsfis1CIRC_pwl8-5nV-4" value="6&lt;br&gt;☆4" style="ellipse;whiteSpace=wrap;html=1;aspect=fixed;" vertex="1" parent="1">
          <mxGeometry x="360" y="150" width="50" height="50" as="geometry" />
        </mxCell>
        <mxCell id="ljsfis1CIRC_pwl8-5nV-5" value="4&lt;br&gt;☆2" style="ellipse;whiteSpace=wrap;html=1;aspect=fixed;" vertex="1" parent="1">
          <mxGeometry x="520" y="231" width="50" height="50" as="geometry" />
        </mxCell>
        <mxCell id="ljsfis1CIRC_pwl8-5nV-6" value="1&lt;br&gt;☆0" style="ellipse;whiteSpace=wrap;html=1;aspect=fixed;" vertex="1" parent="1">
          <mxGeometry x="680" y="151" width="50" height="50" as="geometry" />
        </mxCell>
        <mxCell id="ljsfis1CIRC_pwl8-5nV-11" value="" style="endArrow=none;html=1;rounded=0;entryX=0.5;entryY=1;entryDx=0;entryDy=0;exitX=0.5;exitY=0;exitDx=0;exitDy=0;" edge="1" parent="1" source="ljsfis1CIRC_pwl8-5nV-5" target="ljsfis1CIRC_pwl8-5nV-2">
          <mxGeometry width="50" height="50" relative="1" as="geometry">
            <mxPoint x="880" y="410" as="sourcePoint" />
            <mxPoint x="930" y="360" as="targetPoint" />
          </mxGeometry>
        </mxCell>
        <mxCell id="ljsfis1CIRC_pwl8-5nV-12" value="" style="endArrow=none;html=1;rounded=0;entryX=0;entryY=1;entryDx=0;entryDy=0;exitX=0.5;exitY=0;exitDx=0;exitDy=0;" edge="1" parent="1" source="ljsfis1CIRC_pwl8-5nV-4" target="ljsfis1CIRC_pwl8-5nV-2">
          <mxGeometry width="50" height="50" relative="1" as="geometry">
            <mxPoint x="550" y="250" as="sourcePoint" />
            <mxPoint x="550" y="120" as="targetPoint" />
          </mxGeometry>
        </mxCell>
        <mxCell id="ljsfis1CIRC_pwl8-5nV-13" value="" style="endArrow=none;html=1;rounded=0;exitX=0.5;exitY=0;exitDx=0;exitDy=0;" edge="1" parent="1" source="ljsfis1CIRC_pwl8-5nV-6" target="ljsfis1CIRC_pwl8-5nV-2">
          <mxGeometry width="50" height="50" relative="1" as="geometry">
            <mxPoint x="610" y="250" as="sourcePoint" />
            <mxPoint x="610" y="120" as="targetPoint" />
          </mxGeometry>
        </mxCell>
        <mxCell id="ljsfis1CIRC_pwl8-5nV-14" value="2&lt;br&gt;☆5" style="ellipse;whiteSpace=wrap;html=1;aspect=fixed;" vertex="1" parent="1">
          <mxGeometry x="720" y="230" width="50" height="50" as="geometry" />
        </mxCell>
        <mxCell id="ljsfis1CIRC_pwl8-5nV-15" value="" style="endArrow=none;html=1;rounded=0;entryX=0.5;entryY=1;entryDx=0;entryDy=0;exitX=0.5;exitY=0;exitDx=0;exitDy=0;" edge="1" parent="1" source="ljsfis1CIRC_pwl8-5nV-14" target="ljsfis1CIRC_pwl8-5nV-6">
          <mxGeometry width="50" height="50" relative="1" as="geometry">
            <mxPoint x="550" y="250" as="sourcePoint" />
            <mxPoint x="550" y="120" as="targetPoint" />
          </mxGeometry>
        </mxCell>
        <mxCell id="ljsfis1CIRC_pwl8-5nV-16" value="3&lt;br&gt;☆4&lt;br&gt;podn" style="ellipse;whiteSpace=wrap;html=1;aspect=fixed;" vertex="1" parent="1">
          <mxGeometry x="640" y="320" width="50" height="50" as="geometry" />
        </mxCell>
        <mxCell id="ljsfis1CIRC_pwl8-5nV-17" value="9&lt;br&gt;☆3&lt;br&gt;podn" style="ellipse;whiteSpace=wrap;html=1;aspect=fixed;" vertex="1" parent="1">
          <mxGeometry x="800" y="320" width="50" height="50" as="geometry" />
        </mxCell>
        <mxCell id="ljsfis1CIRC_pwl8-5nV-19" value="" style="endArrow=none;html=1;rounded=0;entryX=1;entryY=0;entryDx=0;entryDy=0;exitX=0.5;exitY=1;exitDx=0;exitDy=0;" edge="1" parent="1" source="ljsfis1CIRC_pwl8-5nV-14" target="ljsfis1CIRC_pwl8-5nV-16">
          <mxGeometry width="50" height="50" relative="1" as="geometry">
            <mxPoint x="750" y="250" as="sourcePoint" />
            <mxPoint x="710" y="210" as="targetPoint" />
          </mxGeometry>
        </mxCell>
        <mxCell id="ljsfis1CIRC_pwl8-5nV-21" value="" style="endArrow=none;html=1;rounded=0;entryX=0.5;entryY=0;entryDx=0;entryDy=0;exitX=0.5;exitY=1;exitDx=0;exitDy=0;" edge="1" parent="1" source="ljsfis1CIRC_pwl8-5nV-14" target="ljsfis1CIRC_pwl8-5nV-17">
          <mxGeometry width="50" height="50" relative="1" as="geometry">
            <mxPoint x="750" y="290" as="sourcePoint" />
            <mxPoint x="684" y="336" as="targetPoint" />
          </mxGeometry>
        </mxCell>
        <mxCell id="ljsfis1CIRC_pwl8-5nV-22" value="5&lt;br&gt;☆1&lt;br&gt;podn" style="ellipse;whiteSpace=wrap;html=1;aspect=fixed;" vertex="1" parent="1">
          <mxGeometry x="520" y="320" width="50" height="50" as="geometry" />
        </mxCell>
        <mxCell id="ljsfis1CIRC_pwl8-5nV-24" value="8&lt;br&gt;☆4" style="ellipse;whiteSpace=wrap;html=1;aspect=fixed;" vertex="1" parent="1">
          <mxGeometry x="320" y="230" width="50" height="50" as="geometry" />
        </mxCell>
        <mxCell id="ljsfis1CIRC_pwl8-5nV-25" value="" style="endArrow=none;html=1;rounded=0;entryX=0.5;entryY=0;entryDx=0;entryDy=0;exitX=0.5;exitY=1;exitDx=0;exitDy=0;" edge="1" parent="1" source="ljsfis1CIRC_pwl8-5nV-4" target="ljsfis1CIRC_pwl8-5nV-24">
          <mxGeometry width="50" height="50" relative="1" as="geometry">
            <mxPoint x="550" y="290" as="sourcePoint" />
            <mxPoint x="550" y="330" as="targetPoint" />
          </mxGeometry>
        </mxCell>
        <mxCell id="ljsfis1CIRC_pwl8-5nV-26" value="7&lt;br&gt;☆5&lt;br&gt;podn" style="ellipse;whiteSpace=wrap;html=1;aspect=fixed;" vertex="1" parent="1">
          <mxGeometry x="400" y="320" width="50" height="50" as="geometry" />
        </mxCell>
        <mxCell id="ljsfis1CIRC_pwl8-5nV-27" value="" style="endArrow=none;html=1;rounded=0;entryX=0.5;entryY=0;entryDx=0;entryDy=0;exitX=0.5;exitY=1;exitDx=0;exitDy=0;" edge="1" parent="1" source="ljsfis1CIRC_pwl8-5nV-4" target="ljsfis1CIRC_pwl8-5nV-26">
          <mxGeometry width="50" height="50" relative="1" as="geometry">
            <mxPoint x="425" y="250" as="sourcePoint" />
            <mxPoint x="350" y="250" as="targetPoint" />
          </mxGeometry>
        </mxCell>
        <mxCell id="ljsfis1CIRC_pwl8-5nV-29" value="" style="endArrow=none;html=1;rounded=0;exitX=0.5;exitY=1;exitDx=0;exitDy=0;" edge="1" parent="1" source="ljsfis1CIRC_pwl8-5nV-5" target="ljsfis1CIRC_pwl8-5nV-22">
          <mxGeometry width="50" height="50" relative="1" as="geometry">
            <mxPoint x="755" y="290" as="sourcePoint" />
            <mxPoint x="693" y="337" as="targetPoint" />
          </mxGeometry>
        </mxCell>
      </root>
    </mxGraphModel>
  </diagram>
</mxfile>
